# ProBuilder 6.0.7
# https://unity3d.com/unity/features/worldbuilding/probuilder
# 2025/10/20 ä¸‹åˆ 08:17:23

mtllib ./Stairs.mtl
o Stairs

g Stairs
v -1.5 -1.5 -5
v 1.5 -1.5 -5
v -1.5 -1.35 -5
v 1.5 -1.35 -5
v -1.5 -1.35 -4.5
v 1.5 -1.35 -4.5
v -1.5 -1.2 -4.5
v 1.5 -1.2 -4.5
v -1.5 -1.2 -4
v 1.5 -1.2 -4
v -1.5 -1.05 -4
v 1.5 -1.05 -4
v -1.5 -1.05 -3.5
v 1.5 -1.05 -3.5
v -1.5 -0.9 -3.5
v 1.5 -0.9 -3.5
v -1.5 -0.9 -3
v 1.5 -0.9 -3
v -1.5 -0.75 -3
v 1.5 -0.75 -3
v -1.5 -0.75 -2.5
v 1.5 -0.75 -2.5
v -1.5 -0.6 -2.5
v 1.5 -0.6 -2.5
v -1.5 -0.6 -2
v 1.5 -0.6 -2
v -1.5 -0.45 -2
v 1.5 -0.45 -2
v -1.5 -0.45 -1.5
v 1.5 -0.45 -1.5
v -1.5 -0.3 -1.5
v 1.5 -0.3 -1.5
v -1.5 -0.3 -0.9999999
v 1.5 -0.3 -0.9999999
v -1.5 -0.15 -0.9999999
v 1.5 -0.15 -0.9999999
v -1.5 -0.15 -0.5000001
v 1.5 -0.15 -0.5000001
v -1.5 0 -0.5000001
v 1.5 0 -0.5000001
v -1.5 0 0
v 1.5 0 0
v -1.5 0.15 0
v 1.5 0.15 0
v -1.5 0.15 0.5000001
v 1.5 0.15 0.5000001
v -1.5 0.3000001 0.5000001
v 1.5 0.3000001 0.5000001
v -1.5 0.3000001 1
v 1.5 0.3000001 1
v -1.5 0.4499999 1
v 1.5 0.4499999 1
v -1.5 0.4499999 1.5
v 1.5 0.4499999 1.5
v -1.5 0.6 1.5
v 1.5 0.6 1.5
v -1.5 0.6 2
v 1.5 0.6 2
v -1.5 0.75 2
v 1.5 0.75 2
v -1.5 0.75 2.5
v 1.5 0.75 2.5
v -1.5 0.9 2.5
v 1.5 0.9 2.5
v -1.5 0.9 3
v 1.5 0.9 3
v -1.5 1.05 3
v 1.5 1.05 3
v -1.5 1.05 3.5
v 1.5 1.05 3.5
v -1.5 1.2 3.5
v 1.5 1.2 3.5
v -1.5 1.2 4
v 1.5 1.2 4
v -1.5 1.35 4
v 1.5 1.35 4
v -1.5 1.35 4.5
v 1.5 1.35 4.5
v -1.5 1.5 4.5
v 1.5 1.5 4.5
v -1.5 1.5 5
v 1.5 1.5 5
v 1.5 -1.5 -4.5
v 1.5 -1.5 -4
v 1.5 -1.5 -3.5
v 1.5 -1.5 -3
v 1.5 -1.5 -2.5
v 1.5 -1.5 -2
v 1.5 -0.6 -2
v 1.5 -1.5 -1.5
v 1.5 -0.45 -2
v 1.5 -1.5 -1
v 1.5 -0.3 -1
v 1.5 -1.5 -0.5
v 1.5 -0.1500001 -1
v 1.5 -1.5 0
v 1.5 -1.5 0.5
v 1.5 -1.5 1
v 1.5 -1.5 1.5
v 1.5 0.4499999 1.5
v 1.5 -1.5 2
v 1.5 0.5999999 2
v 1.5 0.5999999 1.5
v 1.5 -1.5 2.5
v 1.5 0.75 2
v 1.5 -1.5 3
v 1.5 -1.5 3.5
v 1.5 -1.5 4
v 1.5 1.2 4
v 1.5 -1.5 4.5
v 1.5 1.35 4
v 1.5 -1.5 5
v -1.5 -1.5 -4.5
v -1.5 -1.5 -4
v -1.5 -1.5 -3.5
v -1.5 -1.5 -3
v -1.5 -1.5 -2.5
v -1.5 -1.5 -2
v -1.5 -0.6 -2
v -1.5 -1.5 -1.5
v -1.5 -0.45 -2
v -1.5 -1.5 -1
v -1.5 -0.3 -1
v -1.5 -1.5 -0.5
v -1.5 -0.1500001 -1
v -1.5 -1.5 0
v -1.5 -1.5 0.5
v -1.5 -1.5 1
v -1.5 -1.5 1.5
v -1.5 0.4499999 1.5
v -1.5 -1.5 2
v -1.5 0.5999999 2
v -1.5 0.5999999 1.5
v -1.5 -1.5 2.5
v -1.5 0.75 2
v -1.5 -1.5 3
v -1.5 -1.5 3.5
v -1.5 -1.5 4
v -1.5 1.2 4
v -1.5 -1.5 4.5
v -1.5 1.35 4
v -1.5 -1.5 5

vt 1.5 -1.5
vt -1.5 -1.5
vt 1.5 -1.35
vt -1.5 -1.35
vt 1.5 -5
vt -1.5 -5
vt 1.5 -4.5
vt -1.5 -4.5
vt 1.5 -1.2
vt -1.5 -1.2
vt 1.5 -4
vt -1.5 -4
vt 1.5 -1.05
vt -1.5 -1.05
vt 1.5 -3.5
vt -1.5 -3.5
vt 1.5 -0.9
vt -1.5 -0.9
vt 1.5 -3
vt -1.5 -3
vt 1.5 -0.75
vt -1.5 -0.75
vt 1.5 -2.5
vt -1.5 -2.5
vt 1.5 -0.6
vt -1.5 -0.6
vt 1.5 -2
vt -1.5 -2
vt 1.5 -0.45
vt -1.5 -0.45
vt 1.5 -0.3
vt -1.5 -0.3
vt 1.5 -0.9999999
vt -1.5 -0.9999999
vt 1.5 -0.15
vt -1.5 -0.15
vt 1.5 -0.5000001
vt -1.5 -0.5000001
vt 1.5 0
vt -1.5 0
vt 1.5 0.15
vt -1.5 0.15
vt 1.5 0.5000001
vt -1.5 0.5000001
vt 1.5 0.3000001
vt -1.5 0.3000001
vt 1.5 1
vt -1.5 1
vt 1.5 0.4499999
vt -1.5 0.4499999
vt 1.5 1.5
vt -1.5 1.5
vt 1.5 0.6
vt -1.5 0.6
vt 1.5 2
vt -1.5 2
vt 1.5 0.75
vt -1.5 0.75
vt 1.5 2.5
vt -1.5 2.5
vt 1.5 0.9
vt -1.5 0.9
vt 1.5 3
vt -1.5 3
vt 1.5 1.05
vt -1.5 1.05
vt 1.5 3.5
vt -1.5 3.5
vt 1.5 1.2
vt -1.5 1.2
vt 1.5 4
vt -1.5 4
vt 1.5 1.35
vt -1.5 1.35
vt 1.5 4.5
vt -1.5 4.5
vt 1.5 1.5
vt -1.5 1.5
vt 1.5 5
vt -1.5 5
vt 5 -1.5
vt 4.5 -1.5
vt 5 -1.35
vt 4.5 -1.35
vt 4 -1.5
vt 4 -1.2
vt 4.5 -1.2
vt 3.5 -1.5
vt 3.5 -1.05
vt 4 -1.05
vt 3 -1.5
vt 3 -0.9
vt 3.5 -0.9
vt 2.5 -1.5
vt 2.5 -0.75
vt 3 -0.75
vt 2 -1.5
vt 2 -0.6
vt 2.5 -0.6
vt 2 -0.45
vt 1 -1.5
vt 1 -0.3
vt 0.5 -1.5
vt 0.5 -0.1500001
vt 1 -0.1500001
vt 0 -1.5
vt 0 0
vt 0.5 0
vt -0.5 -1.5
vt -0.5 0.1500001
vt 0 0.1500001
vt -1 -1.5
vt -1 0.3000001
vt -0.5 0.3000001
vt -1 0.4499999
vt -2 -1.5
vt -2 0.5999999
vt -2.5 -1.5
vt -2.5 0.75
vt -2 0.75
vt -3 -1.5
vt -3 0.9000001
vt -2.5 0.9000001
vt -3.5 -1.5
vt -3.5 1.05
vt -3 1.05
vt -4 -1.5
vt -4 1.2
vt -3.5 1.2
vt -4.5 -1.5
vt -4.5 1.35
vt -4 1.35
vt -5 -1.5
vt -5 1.5
vt -4.5 1.5
vt -5 -1.35
vt -4.5 -1.35
vt -4 -1.2
vt -4.5 -1.2
vt -3.5 -1.05
vt -4 -1.05
vt -3 -0.9
vt -3.5 -0.9
vt -2.5 -0.75
vt -3 -0.75
vt -2 -0.6
vt -2.5 -0.6
vt -2 -0.45
vt -1 -0.3
vt -0.5 -0.1500001
vt -1 -0.1500001
vt -0.5 0
vt 0.5 0.1500001
vt 1 0.3000001
vt 0.5 0.3000001
vt 1 0.4499999
vt 2 0.5999999
vt 2.5 0.75
vt 2 0.75
vt 3 0.9000001
vt 2.5 0.9000001
vt 3.5 1.05
vt 3 1.05
vt 4 1.2
vt 3.5 1.2
vt 4.5 1.35
vt 4 1.35
vt 5 1.5
vt 4.5 1.5

vn 0 0 -1
vn 0 1 0
vn 1 0 0
vn -1 0 0
vn 0 0 1

usemtl ProBuilderDefault
f 3/3/1 2/2/1 1/1/1
f 3/3/1 4/4/1 2/2/1
f 5/7/2 4/6/2 3/5/2
f 5/7/2 6/8/2 4/6/2
f 7/9/1 6/4/1 5/3/1
f 7/9/1 8/10/1 6/4/1
f 9/11/2 8/8/2 7/7/2
f 9/11/2 10/12/2 8/8/2
f 11/13/1 10/10/1 9/9/1
f 11/13/1 12/14/1 10/10/1
f 13/15/2 12/12/2 11/11/2
f 13/15/2 14/16/2 12/12/2
f 15/17/1 14/14/1 13/13/1
f 15/17/1 16/18/1 14/14/1
f 17/19/2 16/16/2 15/15/2
f 17/19/2 18/20/2 16/16/2
f 19/21/1 18/18/1 17/17/1
f 19/21/1 20/22/1 18/18/1
f 21/23/2 20/20/2 19/19/2
f 21/23/2 22/24/2 20/20/2
f 23/25/1 22/22/1 21/21/1
f 23/25/1 24/26/1 22/22/1
f 25/27/2 24/24/2 23/23/2
f 25/27/2 26/28/2 24/24/2
f 27/29/1 26/26/1 25/25/1
f 27/29/1 28/30/1 26/26/1
f 29/1/2 28/28/2 27/27/2
f 29/1/2 30/2/2 28/28/2
f 31/31/1 30/30/1 29/29/1
f 31/31/1 32/32/1 30/30/1
f 33/33/2 32/2/2 31/1/2
f 33/33/2 34/34/2 32/2/2
f 35/35/1 34/32/1 33/31/1
f 35/35/1 36/36/1 34/32/1
f 37/37/2 36/34/2 35/33/2
f 37/37/2 38/38/2 36/34/2
f 39/39/1 38/36/1 37/35/1
f 39/39/1 40/40/1 38/36/1
f 41/39/2 40/38/2 39/37/2
f 41/39/2 42/40/2 40/38/2
f 43/41/1 42/40/1 41/39/1
f 43/41/1 44/42/1 42/40/1
f 45/43/2 44/40/2 43/39/2
f 45/43/2 46/44/2 44/40/2
f 47/45/1 46/42/1 45/41/1
f 47/45/1 48/46/1 46/42/1
f 49/47/2 48/44/2 47/43/2
f 49/47/2 50/48/2 48/44/2
f 51/49/1 50/46/1 49/45/1
f 51/49/1 52/50/1 50/46/1
f 53/51/2 52/48/2 51/47/2
f 53/51/2 54/52/2 52/48/2
f 55/53/1 54/50/1 53/49/1
f 55/53/1 56/54/1 54/50/1
f 57/55/2 56/52/2 55/51/2
f 57/55/2 58/56/2 56/52/2
f 59/57/1 58/54/1 57/53/1
f 59/57/1 60/58/1 58/54/1
f 61/59/2 60/56/2 59/55/2
f 61/59/2 62/60/2 60/56/2
f 63/61/1 62/58/1 61/57/1
f 63/61/1 64/62/1 62/58/1
f 65/63/2 64/60/2 63/59/2
f 65/63/2 66/64/2 64/60/2
f 67/65/1 66/62/1 65/61/1
f 67/65/1 68/66/1 66/62/1
f 69/67/2 68/64/2 67/63/2
f 69/67/2 70/68/2 68/64/2
f 71/69/1 70/66/1 69/65/1
f 71/69/1 72/70/1 70/66/1
f 73/71/2 72/68/2 71/67/2
f 73/71/2 74/72/2 72/68/2
f 75/73/1 74/70/1 73/69/1
f 75/73/1 76/74/1 74/70/1
f 77/75/2 76/72/2 75/71/2
f 77/75/2 78/76/2 76/72/2
f 79/77/1 78/74/1 77/73/1
f 79/77/1 80/78/1 78/74/1
f 81/79/2 80/76/2 79/75/2
f 81/79/2 82/80/2 80/76/2
f 4/83/3 83/82/3 2/81/3
f 4/83/3 6/84/3 83/82/3
f 6/84/3 84/85/3 83/82/3
f 6/84/3 10/86/3 84/85/3
f 6/84/3 8/87/3 10/86/3
f 10/86/3 85/88/3 84/85/3
f 10/86/3 14/89/3 85/88/3
f 10/86/3 12/90/3 14/89/3
f 14/89/3 86/91/3 85/88/3
f 14/89/3 18/92/3 86/91/3
f 14/89/3 16/93/3 18/92/3
f 18/92/3 87/94/3 86/91/3
f 18/92/3 22/95/3 87/94/3
f 18/92/3 20/96/3 22/95/3
f 22/95/3 88/97/3 87/94/3
f 22/95/3 89/98/3 88/97/3
f 22/95/3 24/99/3 89/98/3
f 89/98/3 90/1/3 88/97/3
f 89/98/3 30/29/3 90/1/3
f 89/98/3 91/100/3 30/29/3
f 30/29/3 92/101/3 90/1/3
f 30/29/3 93/102/3 92/101/3
f 30/29/3 32/31/3 93/102/3
f 93/102/3 94/103/3 92/101/3
f 93/102/3 38/104/3 94/103/3
f 93/102/3 95/105/3 38/104/3
f 38/104/3 96/106/3 94/103/3
f 38/104/3 42/107/3 96/106/3
f 38/104/3 40/108/3 42/107/3
f 42/107/3 97/109/3 96/106/3
f 42/107/3 46/110/3 97/109/3
f 42/107/3 44/111/3 46/110/3
f 46/110/3 98/112/3 97/109/3
f 46/110/3 50/113/3 98/112/3
f 46/110/3 48/114/3 50/113/3
f 50/113/3 99/2/3 98/112/3
f 50/113/3 100/50/3 99/2/3
f 50/113/3 52/115/3 100/50/3
f 100/50/3 101/116/3 99/2/3
f 100/50/3 102/117/3 101/116/3
f 100/50/3 103/54/3 102/117/3
f 102/117/3 104/118/3 101/116/3
f 102/117/3 62/119/3 104/118/3
f 102/117/3 105/120/3 62/119/3
f 62/119/3 106/121/3 104/118/3
f 62/119/3 66/122/3 106/121/3
f 62/119/3 64/123/3 66/122/3
f 66/122/3 107/124/3 106/121/3
f 66/122/3 70/125/3 107/124/3
f 66/122/3 68/126/3 70/125/3
f 70/125/3 108/127/3 107/124/3
f 70/125/3 109/128/3 108/127/3
f 70/125/3 72/129/3 109/128/3
f 109/128/3 110/130/3 108/127/3
f 109/128/3 78/131/3 110/130/3
f 109/128/3 111/132/3 78/131/3
f 78/131/3 112/133/3 110/130/3
f 78/131/3 82/134/3 112/133/3
f 78/131/3 80/135/3 82/134/3
f 1/133/4 113/130/4 3/136/4
f 113/130/4 5/137/4 3/136/4
f 113/130/4 114/127/4 5/137/4
f 114/127/4 9/138/4 5/137/4
f 9/138/4 7/139/4 5/137/4
f 114/127/4 115/124/4 9/138/4
f 115/124/4 13/140/4 9/138/4
f 13/140/4 11/141/4 9/138/4
f 115/124/4 116/121/4 13/140/4
f 116/121/4 17/142/4 13/140/4
f 17/142/4 15/143/4 13/140/4
f 116/121/4 117/118/4 17/142/4
f 117/118/4 21/144/4 17/142/4
f 21/144/4 19/145/4 17/142/4
f 117/118/4 118/116/4 21/144/4
f 118/116/4 119/146/4 21/144/4
f 119/146/4 23/147/4 21/144/4
f 118/116/4 120/2/4 119/146/4
f 120/2/4 29/30/4 119/146/4
f 29/30/4 121/148/4 119/146/4
f 120/2/4 122/112/4 29/30/4
f 122/112/4 123/149/4 29/30/4
f 123/149/4 31/32/4 29/30/4
f 122/112/4 124/109/4 123/149/4
f 124/109/4 37/150/4 123/149/4
f 37/150/4 125/151/4 123/149/4
f 124/109/4 126/106/4 37/150/4
f 126/106/4 41/107/4 37/150/4
f 41/107/4 39/152/4 37/150/4
f 126/106/4 127/103/4 41/107/4
f 127/103/4 45/153/4 41/107/4
f 45/153/4 43/111/4 41/107/4
f 127/103/4 128/101/4 45/153/4
f 128/101/4 49/154/4 45/153/4
f 49/154/4 47/155/4 45/153/4
f 128/101/4 129/1/4 49/154/4
f 129/1/4 130/49/4 49/154/4
f 130/49/4 51/156/4 49/154/4
f 129/1/4 131/97/4 130/49/4
f 131/97/4 132/157/4 130/49/4
f 132/157/4 133/53/4 130/49/4
f 131/97/4 134/94/4 132/157/4
f 134/94/4 61/158/4 132/157/4
f 61/158/4 135/159/4 132/157/4
f 134/94/4 136/91/4 61/158/4
f 136/91/4 65/160/4 61/158/4
f 65/160/4 63/161/4 61/158/4
f 136/91/4 137/88/4 65/160/4
f 137/88/4 69/162/4 65/160/4
f 69/162/4 67/163/4 65/160/4
f 137/88/4 138/85/4 69/162/4
f 138/85/4 139/164/4 69/162/4
f 139/164/4 71/165/4 69/162/4
f 138/85/4 140/82/4 139/164/4
f 140/82/4 77/166/4 139/164/4
f 77/166/4 141/167/4 139/164/4
f 140/82/4 142/81/4 77/166/4
f 142/81/4 81/168/4 77/166/4
f 81/168/4 79/169/4 77/166/4
f 82/77/5 142/2/5 112/1/5
f 82/77/5 81/78/5 142/2/5

