# ProBuilder 6.0.7
# https://unity3d.com/unity/features/worldbuilding/probuilder
# 2025/10/20 ä¸‹åˆ 08:18:21

mtllib ./Stairs_(1).mtl
o Stairs (1)

g Stairs (1)
v -1.5 -2.5 -5
v 1.5 -2.5 -5
v -1.5 -2.25 -5
v 1.5 -2.25 -5
v -1.5 -2.25 -4.5
v 1.5 -2.25 -4.5
v -1.5 -2 -4.5
v 1.5 -2 -4.5
v -1.5 -2 -4
v 1.5 -2 -4
v -1.5 -1.75 -4
v 1.5 -1.75 -4
v -1.5 -1.75 -3.5
v 1.5 -1.75 -3.5
v -1.5 -1.5 -3.5
v 1.5 -1.5 -3.5
v -1.5 -1.5 -3
v 1.5 -1.5 -3
v -1.5 -1.25 -3
v 1.5 -1.25 -3
v -1.5 -1.25 -2.5
v 1.5 -1.25 -2.5
v -1.5 -0.9999999 -2.5
v 1.5 -0.9999999 -2.5
v -1.5 -0.9999999 -2
v 1.5 -0.9999999 -2
v -1.5 -0.75 -2
v 1.5 -0.75 -2
v -1.5 -0.75 -1.5
v 1.5 -0.75 -1.5
v -1.5 -0.5 -1.5
v 1.5 -0.5 -1.5
v -1.5 -0.5 -0.9999999
v 1.5 -0.5 -0.9999999
v -1.5 -0.2500001 -0.9999999
v 1.5 -0.2500001 -0.9999999
v -1.5 -0.2500001 -0.5000001
v 1.5 -0.2500001 -0.5000001
v -1.5 0 -0.5000001
v 1.5 0 -0.5000001
v -1.5 0 0
v 1.5 0 0
v -1.5 0.2500001 0
v 1.5 0.2500001 0
v -1.5 0.2500001 0.5000001
v 1.5 0.2500001 0.5000001
v -1.5 0.5000001 0.5000001
v 1.5 0.5000001 0.5000001
v -1.5 0.5000001 1
v 1.5 0.5000001 1
v -1.5 0.7499999 1
v 1.5 0.7499999 1
v -1.5 0.7499999 1.5
v 1.5 0.7499999 1.5
v -1.5 0.9999999 1.5
v 1.5 0.9999999 1.5
v -1.5 0.9999999 2
v 1.5 0.9999999 2
v -1.5 1.25 2
v 1.5 1.25 2
v -1.5 1.25 2.5
v 1.5 1.25 2.5
v -1.5 1.5 2.5
v 1.5 1.5 2.5
v -1.5 1.5 3
v 1.5 1.5 3
v -1.5 1.75 3
v 1.5 1.75 3
v -1.5 1.75 3.5
v 1.5 1.75 3.5
v -1.5 2 3.5
v 1.5 2 3.5
v -1.5 2 4
v 1.5 2 4
v -1.5 2.25 4
v 1.5 2.25 4
v -1.5 2.25 4.5
v 1.5 2.25 4.5
v -1.5 2.5 4.5
v 1.5 2.5 4.5
v -1.5 2.5 5
v 1.5 2.5 5
v 1.5 -2.5 -4.5
v 1.5 -2.5 -4
v 1.5 -2.5 -3.5
v 1.5 -2.5 -3
v 1.5 -2.5 -2.5
v 1.5 -2.5 -2
v 1.5 -1 -2
v 1.5 -1 -2.5
v 1.5 -2.5 -1.5
v 1.5 -0.75 -2
v 1.5 -2.5 -1
v 1.5 -0.5 -1
v 1.5 -0.5 -1.5
v 1.5 -2.5 -0.5
v 1.5 -0.25 -1
v 1.5 -2.5 0
v 1.5 -2.5 0.5
v 1.5 -2.5 1
v 1.5 -2.5 1.5
v 1.5 0.75 1.5
v 1.5 0.75 1
v 1.5 -2.5 2
v 1.5 1 2
v 1.5 1 1.5
v 1.5 -2.5 2.5
v 1.5 1.25 2
v 1.5 -2.5 3
v 1.5 -2.5 3.5
v 1.5 -2.5 4
v 1.5 2 4
v 1.5 2 3.5
v 1.5 -2.5 4.5
v 1.5 2.25 4
v 1.5 -2.5 5
v -1.5 -2.5 -4.5
v -1.5 -2.5 -4
v -1.5 -2.5 -3.5
v -1.5 -2.5 -3
v -1.5 -2.5 -2.5
v -1.5 -2.5 -2
v -1.5 -1 -2
v -1.5 -1 -2.5
v -1.5 -2.5 -1.5
v -1.5 -0.75 -2
v -1.5 -2.5 -1
v -1.5 -0.5 -1
v -1.5 -0.5 -1.5
v -1.5 -2.5 -0.5
v -1.5 -0.25 -1
v -1.5 -2.5 0
v -1.5 -2.5 0.5
v -1.5 -2.5 1
v -1.5 -2.5 1.5
v -1.5 0.75 1.5
v -1.5 0.75 1
v -1.5 -2.5 2
v -1.5 1 2
v -1.5 1 1.5
v -1.5 -2.5 2.5
v -1.5 1.25 2
v -1.5 -2.5 3
v -1.5 -2.5 3.5
v -1.5 -2.5 4
v -1.5 2 4
v -1.5 2 3.5
v -1.5 -2.5 4.5
v -1.5 2.25 4
v -1.5 -2.5 5

vt 1.5 -2.5
vt -1.5 -2.5
vt 1.5 -2.25
vt -1.5 -2.25
vt 1.5 -5
vt -1.5 -5
vt 1.5 -4.5
vt -1.5 -4.5
vt 1.5 -2
vt -1.5 -2
vt 1.5 -4
vt -1.5 -4
vt 1.5 -1.75
vt -1.5 -1.75
vt 1.5 -3.5
vt -1.5 -3.5
vt 1.5 -1.5
vt -1.5 -1.5
vt 1.5 -3
vt -1.5 -3
vt 1.5 -1.25
vt -1.5 -1.25
vt 1.5 -0.9999999
vt -1.5 -0.9999999
vt 1.5 -2
vt -1.5 -2
vt 1.5 -0.75
vt -1.5 -0.75
vt 1.5 -0.5
vt -1.5 -0.5
vt 1.5 -0.2500001
vt -1.5 -0.2500001
vt 1.5 -0.5000001
vt -1.5 -0.5000001
vt 1.5 0
vt -1.5 0
vt 1.5 0.2500001
vt -1.5 0.2500001
vt 1.5 0.5000001
vt -1.5 0.5000001
vt 1.5 1
vt -1.5 1
vt 1.5 0.7499999
vt -1.5 0.7499999
vt 1.5 1.5
vt -1.5 1.5
vt 1.5 0.9999999
vt -1.5 0.9999999
vt 1.5 2
vt -1.5 2
vt 1.5 1.25
vt -1.5 1.25
vt 1.5 2.5
vt -1.5 2.5
vt 1.5 1.5
vt -1.5 1.5
vt 1.5 3
vt -1.5 3
vt 1.5 1.75
vt -1.5 1.75
vt 1.5 3.5
vt -1.5 3.5
vt 1.5 4
vt -1.5 4
vt 1.5 2.25
vt -1.5 2.25
vt 1.5 4.5
vt -1.5 4.5
vt 1.5 5
vt -1.5 5
vt 5 -2.5
vt 4.5 -2.5
vt 5 -2.25
vt 4.5 -2.25
vt 4 -2.5
vt 4 -2
vt 4.5 -2
vt 3.5 -2.5
vt 3.5 -1.75
vt 4 -1.75
vt 3 -2.5
vt 3 -1.5
vt 3.5 -1.5
vt 2.5 -2.5
vt 2.5 -1.25
vt 3 -1.25
vt 2 -2.5
vt 2 -1
vt 2.5 -1
vt 2 -0.75
vt 1 -2.5
vt 1 -0.5
vt 0.5 -2.5
vt 0.5 -0.25
vt 1 -0.25
vt 0 -2.5
vt 0 0
vt 0.5 0
vt -0.5 -2.5
vt -0.5 0.25
vt 0 0.25
vt -1 -2.5
vt -1 0.5
vt -0.5 0.5
vt -1.5 0.75
vt -1 0.75
vt -2 -2.5
vt -2 1
vt -2.5 -2.5
vt -2.5 1.25
vt -2 1.25
vt -3 -2.5
vt -3 1.5
vt -2.5 1.5
vt -3.5 -2.5
vt -3.5 1.75
vt -3 1.75
vt -4 -2.5
vt -4 2
vt -3.5 2
vt -4.5 -2.5
vt -4.5 2.25
vt -4 2.25
vt -5 -2.5
vt -5 2.5
vt -4.5 2.5
vt -5 -2.25
vt -4.5 -2.25
vt -4 -2
vt -4.5 -2
vt -3.5 -1.75
vt -4 -1.75
vt -3 -1.5
vt -3.5 -1.5
vt -2.5 -1.25
vt -3 -1.25
vt -2 -1
vt -2.5 -1
vt -2 -0.75
vt -1 -0.5
vt -0.5 -0.25
vt -1 -0.25
vt -0.5 0
vt 0.5 0.25
vt 1 0.5
vt 0.5 0.5
vt 1.5 0.75
vt 1 0.75
vt 2 1
vt 2.5 1.25
vt 2 1.25
vt 3 1.5
vt 2.5 1.5
vt 3.5 1.75
vt 3 1.75
vt 4 2
vt 3.5 2
vt 4.5 2.25
vt 4 2.25
vt 5 2.5
vt 4.5 2.5

vn 0 0 -1
vn 0 1 0
vn 1 0 0
vn -1 0 0
vn 0 0 1

usemtl ProBuilderDefault
f 3/3/1 2/2/1 1/1/1
f 3/3/1 4/4/1 2/2/1
f 5/7/2 4/6/2 3/5/2
f 5/7/2 6/8/2 4/6/2
f 7/9/1 6/4/1 5/3/1
f 7/9/1 8/10/1 6/4/1
f 9/11/2 8/8/2 7/7/2
f 9/11/2 10/12/2 8/8/2
f 11/13/1 10/10/1 9/9/1
f 11/13/1 12/14/1 10/10/1
f 13/15/2 12/12/2 11/11/2
f 13/15/2 14/16/2 12/12/2
f 15/17/1 14/14/1 13/13/1
f 15/17/1 16/18/1 14/14/1
f 17/19/2 16/16/2 15/15/2
f 17/19/2 18/20/2 16/16/2
f 19/21/1 18/18/1 17/17/1
f 19/21/1 20/22/1 18/18/1
f 21/1/2 20/20/2 19/19/2
f 21/1/2 22/2/2 20/20/2
f 23/23/1 22/22/1 21/21/1
f 23/23/1 24/24/1 22/22/1
f 25/25/2 24/2/2 23/1/2
f 25/25/2 26/26/2 24/2/2
f 27/27/1 26/24/1 25/23/1
f 27/27/1 28/28/1 26/24/1
f 29/17/2 28/26/2 27/25/2
f 29/17/2 30/18/2 28/26/2
f 31/29/1 30/28/1 29/27/1
f 31/29/1 32/30/1 30/28/1
f 33/23/2 32/18/2 31/17/2
f 33/23/2 34/24/2 32/18/2
f 35/31/1 34/30/1 33/29/1
f 35/31/1 36/32/1 34/30/1
f 37/33/2 36/24/2 35/23/2
f 37/33/2 38/34/2 36/24/2
f 39/35/1 38/32/1 37/31/1
f 39/35/1 40/36/1 38/32/1
f 41/35/2 40/34/2 39/33/2
f 41/35/2 42/36/2 40/34/2
f 43/37/1 42/36/1 41/35/1
f 43/37/1 44/38/1 42/36/1
f 45/39/2 44/36/2 43/35/2
f 45/39/2 46/40/2 44/36/2
f 47/39/1 46/38/1 45/37/1
f 47/39/1 48/40/1 46/38/1
f 49/41/2 48/40/2 47/39/2
f 49/41/2 50/42/2 48/40/2
f 51/43/1 50/40/1 49/39/1
f 51/43/1 52/44/1 50/40/1
f 53/45/2 52/42/2 51/41/2
f 53/45/2 54/46/2 52/42/2
f 55/47/1 54/44/1 53/43/1
f 55/47/1 56/48/1 54/44/1
f 57/49/2 56/46/2 55/45/2
f 57/49/2 58/50/2 56/46/2
f 59/51/1 58/48/1 57/47/1
f 59/51/1 60/52/1 58/48/1
f 61/53/2 60/50/2 59/49/2
f 61/53/2 62/54/2 60/50/2
f 63/55/1 62/52/1 61/51/1
f 63/55/1 64/56/1 62/52/1
f 65/57/2 64/54/2 63/53/2
f 65/57/2 66/58/2 64/54/2
f 67/59/1 66/56/1 65/55/1
f 67/59/1 68/60/1 66/56/1
f 69/61/2 68/58/2 67/57/2
f 69/61/2 70/62/2 68/58/2
f 71/49/1 70/60/1 69/59/1
f 71/49/1 72/50/1 70/60/1
f 73/63/2 72/62/2 71/61/2
f 73/63/2 74/64/2 72/62/2
f 75/65/1 74/50/1 73/49/1
f 75/65/1 76/66/1 74/50/1
f 77/67/2 76/64/2 75/63/2
f 77/67/2 78/68/2 76/64/2
f 79/53/1 78/66/1 77/65/1
f 79/53/1 80/54/1 78/66/1
f 81/69/2 80/68/2 79/67/2
f 81/69/2 82/70/2 80/68/2
f 4/73/3 83/72/3 2/71/3
f 4/73/3 6/74/3 83/72/3
f 6/74/3 84/75/3 83/72/3
f 6/74/3 10/76/3 84/75/3
f 6/74/3 8/77/3 10/76/3
f 10/76/3 85/78/3 84/75/3
f 10/76/3 14/79/3 85/78/3
f 10/76/3 12/80/3 14/79/3
f 14/79/3 86/81/3 85/78/3
f 14/79/3 18/82/3 86/81/3
f 14/79/3 16/83/3 18/82/3
f 18/82/3 87/84/3 86/81/3
f 18/82/3 22/85/3 87/84/3
f 18/82/3 20/86/3 22/85/3
f 22/85/3 88/87/3 87/84/3
f 22/85/3 89/88/3 88/87/3
f 22/85/3 90/89/3 89/88/3
f 89/88/3 91/1/3 88/87/3
f 89/88/3 30/27/3 91/1/3
f 89/88/3 92/90/3 30/27/3
f 30/27/3 93/91/3 91/1/3
f 30/27/3 94/92/3 93/91/3
f 30/27/3 95/33/3 94/92/3
f 94/92/3 96/93/3 93/91/3
f 94/92/3 38/94/3 96/93/3
f 94/92/3 97/95/3 38/94/3
f 38/94/3 98/96/3 96/93/3
f 38/94/3 42/97/3 98/96/3
f 38/94/3 40/98/3 42/97/3
f 42/97/3 99/99/3 98/96/3
f 42/97/3 46/100/3 99/99/3
f 42/97/3 44/101/3 46/100/3
f 46/100/3 100/102/3 99/99/3
f 46/100/3 50/103/3 100/102/3
f 46/100/3 48/104/3 50/103/3
f 50/103/3 101/2/3 100/102/3
f 50/103/3 102/105/3 101/2/3
f 50/103/3 103/106/3 102/105/3
f 102/105/3 104/107/3 101/2/3
f 102/105/3 105/108/3 104/107/3
f 102/105/3 106/42/3 105/108/3
f 105/108/3 107/109/3 104/107/3
f 105/108/3 62/110/3 107/109/3
f 105/108/3 108/111/3 62/110/3
f 62/110/3 109/112/3 107/109/3
f 62/110/3 66/113/3 109/112/3
f 62/110/3 64/114/3 66/113/3
f 66/113/3 110/115/3 109/112/3
f 66/113/3 70/116/3 110/115/3
f 66/113/3 68/117/3 70/116/3
f 70/116/3 111/118/3 110/115/3
f 70/116/3 112/119/3 111/118/3
f 70/116/3 113/120/3 112/119/3
f 112/119/3 114/121/3 111/118/3
f 112/119/3 78/122/3 114/121/3
f 112/119/3 115/123/3 78/122/3
f 78/122/3 116/124/3 114/121/3
f 78/122/3 82/125/3 116/124/3
f 78/122/3 80/126/3 82/125/3
f 1/124/4 117/121/4 3/127/4
f 117/121/4 5/128/4 3/127/4
f 117/121/4 118/118/4 5/128/4
f 118/118/4 9/129/4 5/128/4
f 9/129/4 7/130/4 5/128/4
f 118/118/4 119/115/4 9/129/4
f 119/115/4 13/131/4 9/129/4
f 13/131/4 11/132/4 9/129/4
f 119/115/4 120/112/4 13/131/4
f 120/112/4 17/133/4 13/131/4
f 17/133/4 15/134/4 13/131/4
f 120/112/4 121/109/4 17/133/4
f 121/109/4 21/135/4 17/133/4
f 21/135/4 19/136/4 17/133/4
f 121/109/4 122/107/4 21/135/4
f 122/107/4 123/137/4 21/135/4
f 123/137/4 124/138/4 21/135/4
f 122/107/4 125/2/4 123/137/4
f 125/2/4 29/28/4 123/137/4
f 29/28/4 126/139/4 123/137/4
f 125/2/4 127/102/4 29/28/4
f 127/102/4 128/140/4 29/28/4
f 128/140/4 129/34/4 29/28/4
f 127/102/4 130/99/4 128/140/4
f 130/99/4 37/141/4 128/140/4
f 37/141/4 131/142/4 128/140/4
f 130/99/4 132/96/4 37/141/4
f 132/96/4 41/97/4 37/141/4
f 41/97/4 39/143/4 37/141/4
f 132/96/4 133/93/4 41/97/4
f 133/93/4 45/144/4 41/97/4
f 45/144/4 43/101/4 41/97/4
f 133/93/4 134/91/4 45/144/4
f 134/91/4 49/145/4 45/144/4
f 49/145/4 47/146/4 45/144/4
f 134/91/4 135/1/4 49/145/4
f 135/1/4 136/147/4 49/145/4
f 136/147/4 137/148/4 49/145/4
f 135/1/4 138/87/4 136/147/4
f 138/87/4 139/149/4 136/147/4
f 139/149/4 140/41/4 136/147/4
f 138/87/4 141/84/4 139/149/4
f 141/84/4 61/150/4 139/149/4
f 61/150/4 142/151/4 139/149/4
f 141/84/4 143/81/4 61/150/4
f 143/81/4 65/152/4 61/150/4
f 65/152/4 63/153/4 61/150/4
f 143/81/4 144/78/4 65/152/4
f 144/78/4 69/154/4 65/152/4
f 69/154/4 67/155/4 65/152/4
f 144/78/4 145/75/4 69/154/4
f 145/75/4 146/156/4 69/154/4
f 146/156/4 147/157/4 69/154/4
f 145/75/4 148/72/4 146/156/4
f 148/72/4 77/158/4 146/156/4
f 77/158/4 149/159/4 146/156/4
f 148/72/4 150/71/4 77/158/4
f 150/71/4 81/160/4 77/158/4
f 81/160/4 79/161/4 77/158/4
f 82/53/5 150/2/5 116/1/5
f 82/53/5 81/54/5 150/2/5

